<svg xmlns="http://www.w3.org/2000/svg" xmlns:xlink="http://www.w3.org/1999/xlink" fill="none" version="1.1" width="909.66796875" height="150" viewBox="0 0 909.66796875 150"><defs><linearGradient x1="1.060667634010315" y1="0.12010253220796585" x2="0.5" y2="0.8750842213630676" id="master_svg0_234_19636"><stop offset="46.56137824058533%" stop-color="#66CEA3" stop-opacity="1"/><stop offset="73.48802089691162%" stop-color="#539F7F" stop-opacity="1"/><stop offset="99.99997019767761%" stop-color="#315947" stop-opacity="1"/></linearGradient><filter id="master_svg1_645_12255" filterUnits="objectBoundingBox" color-interpolation-filters="sRGB" x="-0.8946660757064819" y="-0.8946660757064819" width="134.84218859672546" height="87.45568346977234"><feFlood flood-opacity="0" result="BackgroundImageFix"/><feBlend mode="normal" in="SourceGraphic" in2="BackgroundImageFix" result="shape"/><feGaussianBlur stdDeviation="0.22366651892662048" result="effect1_foregroundBlur"/></filter><linearGradient x1="0.5" y1="0" x2="0.48407304286956787" y2="1.3970913887023926" id="master_svg2_234_19644"><stop offset="32.35922157764435%" stop-color="#19513B" stop-opacity="1"/><stop offset="78.35493683815002%" stop-color="#606060" stop-opacity="0"/></linearGradient><filter id="master_svg3_645_12257" filterUnits="objectBoundingBox" color-interpolation-filters="sRGB" x="-1.7893321514129639" y="-1.7893321514129639" width="93.9944281578064" height="84.26677465438843"><feFlood flood-opacity="0" result="BackgroundImageFix"/><feBlend mode="normal" in="SourceGraphic" in2="BackgroundImageFix" result="shape"/><feGaussianBlur stdDeviation="0.44733303785324097" result="effect1_foregroundBlur"/></filter><linearGradient x1="0" y1="1" x2="1" y2="0" id="master_svg4_234_19649"><stop offset="43.05824339389801%" stop-color="#19513B" stop-opacity="1"/><stop offset="99.99998211860657%" stop-color="#BBBBBB" stop-opacity="1"/></linearGradient><filter id="master_svg5_645_12260" filterUnits="objectBoundingBox" color-interpolation-filters="sRGB" x="-0.9651482701301575" y="-0.9651482701301575" width="3.6943358182907104" height="60.383272767066956"><feFlood flood-opacity="0" result="BackgroundImageFix"/><feBlend mode="normal" in="SourceGraphic" in2="BackgroundImageFix" result="shape"/><feGaussianBlur stdDeviation="0.24128706753253937" result="effect1_foregroundBlur"/></filter><filter id="master_svg6_645_12261" filterUnits="objectBoundingBox" color-interpolation-filters="sRGB" x="-0.9651482701301575" y="-0.9651482701301575" width="3.2243517637252808" height="60.54554235935211"><feFlood flood-opacity="0" result="BackgroundImageFix"/><feBlend mode="normal" in="SourceGraphic" in2="BackgroundImageFix" result="shape"/><feGaussianBlur stdDeviation="0.24128706753253937" result="effect1_foregroundBlur"/></filter><filter id="master_svg7_645_12264" filterUnits="objectBoundingBox" color-interpolation-filters="sRGB" x="-0.8946660757064819" y="-0.8946660757064819" width="101.53060412406921" height="42.229471921920776"><feFlood flood-opacity="0" result="BackgroundImageFix"/><feBlend mode="normal" in="SourceGraphic" in2="BackgroundImageFix" result="shape"/><feGaussianBlur stdDeviation="0.22366651892662048" result="effect1_foregroundBlur"/></filter><linearGradient x1="0" y1="1" x2="1.178840160369873" y2="-0.18533694744110107" id="master_svg8_295_18302"><stop offset="0%" stop-color="#28543D" stop-opacity="1"/><stop offset="70.15714049339294%" stop-color="#365243" stop-opacity="1"/><stop offset="100%" stop-color="#50FFA8" stop-opacity="1"/></linearGradient><filter id="master_svg9_645_12267" filterUnits="objectBoundingBox" color-interpolation-filters="sRGB" x="-3.5786643028259277" y="-3.5786643028259277" width="8.947945713996887" height="72.55556774139404"><feFlood flood-opacity="0" result="BackgroundImageFix"/><feBlend mode="normal" in="SourceGraphic" in2="BackgroundImageFix" result="shape"/><feGaussianBlur stdDeviation="0.8946660757064819" result="effect1_foregroundBlur"/></filter><filter id="master_svga_645_12268" filterUnits="objectBoundingBox" color-interpolation-filters="sRGB" x="-1.7893321514129639" y="-1.7893321514129639" width="17.590949535369873" height="4.914476275444031"><feFlood flood-opacity="0" result="BackgroundImageFix"/><feBlend mode="normal" in="SourceGraphic" in2="BackgroundImageFix" result="shape"/><feGaussianBlur stdDeviation="0.44733303785324097" result="effect1_foregroundBlur"/></filter><filter id="master_svgb_645_12269" filterUnits="objectBoundingBox" color-interpolation-filters="sRGB" x="-3.5786643028259277" y="-3.5786643028259277" width="8.947945713996887" height="72.2464246749878"><feFlood flood-opacity="0" result="BackgroundImageFix"/><feBlend mode="normal" in="SourceGraphic" in2="BackgroundImageFix" result="shape"/><feGaussianBlur stdDeviation="0.8946660757064819" result="effect1_foregroundBlur"/></filter><filter id="master_svgc_645_12270" filterUnits="objectBoundingBox" color-interpolation-filters="sRGB" x="-1.7893321514129639" y="-1.7893321514129639" width="30.575000286102295" height="19.300761699676514"><feFlood flood-opacity="0" result="BackgroundImageFix"/><feBlend mode="normal" in="SourceGraphic" in2="BackgroundImageFix" result="shape"/><feGaussianBlur stdDeviation="0.44733303785324097" result="effect1_foregroundBlur"/></filter><linearGradient x1="0.03296469897031784" y1="1" x2="1.1748238801956177" y2="0.13778124749660492" id="master_svgd_295_18299"><stop offset="0%" stop-color="#36694D" stop-opacity="1"/><stop offset="99.99988675117493%" stop-color="#36694D" stop-opacity="0"/></linearGradient><filter id="master_svge_645_12271" filterUnits="objectBoundingBox" color-interpolation-filters="sRGB" x="-1.7893321514129639" y="-1.7893321514129639" width="17.590949535369873" height="4.914476275444031"><feFlood flood-opacity="0" result="BackgroundImageFix"/><feBlend mode="normal" in="SourceGraphic" in2="BackgroundImageFix" result="shape"/><feGaussianBlur stdDeviation="0.44733303785324097" result="effect1_foregroundBlur"/></filter><filter id="master_svgf_645_12272" filterUnits="objectBoundingBox" color-interpolation-filters="sRGB" x="-1.7893321514129639" y="-1.7893321514129639" width="17.008291721343994" height="4.914476275444031"><feFlood flood-opacity="0" result="BackgroundImageFix"/><feBlend mode="normal" in="SourceGraphic" in2="BackgroundImageFix" result="shape"/><feGaussianBlur stdDeviation="0.44733303785324097" result="effect1_foregroundBlur"/></filter><filter id="master_svgg_645_12273" filterUnits="objectBoundingBox" color-interpolation-filters="sRGB" x="-3.5786643028259277" y="-3.5786643028259277" width="15.662759780883789" height="76.89646434783936"><feFlood flood-opacity="0" result="BackgroundImageFix"/><feBlend mode="normal" in="SourceGraphic" in2="BackgroundImageFix" result="shape"/><feGaussianBlur stdDeviation="0.8946660757064819" result="effect1_foregroundBlur"/></filter><filter id="master_svgh_645_12274" filterUnits="objectBoundingBox" color-interpolation-filters="sRGB" x="-1.7893321514129639" y="-1.7893321514129639" width="3.5786643028259277" height="66.6128134727478"><feFlood flood-opacity="0" result="BackgroundImageFix"/><feBlend mode="normal" in="SourceGraphic" in2="BackgroundImageFix" result="shape"/><feGaussianBlur stdDeviation="0.44733303785324097" result="effect1_foregroundBlur"/></filter><filter id="master_svgi_645_12275" filterUnits="objectBoundingBox" color-interpolation-filters="sRGB" x="-1.7893321514129639" y="-1.7893321514129639" width="3.5786643028259277" height="52.364144802093506"><feFlood flood-opacity="0" result="BackgroundImageFix"/><feBlend mode="normal" in="SourceGraphic" in2="BackgroundImageFix" result="shape"/><feGaussianBlur stdDeviation="0.44733303785324097" result="effect1_foregroundBlur"/></filter><filter id="master_svgj_645_12276" filterUnits="objectBoundingBox" color-interpolation-filters="sRGB" x="-1.7893321514129639" y="-1.7893321514129639" width="29.17771863937378" height="4.914476275444031"><feFlood flood-opacity="0" result="BackgroundImageFix"/><feBlend mode="normal" in="SourceGraphic" in2="BackgroundImageFix" result="shape"/><feGaussianBlur stdDeviation="0.44733303785324097" result="effect1_foregroundBlur"/></filter><filter id="master_svgk_645_12278" filterUnits="objectBoundingBox" color-interpolation-filters="sRGB" x="-0.8946660757064819" y="-0.8946660757064819" width="101.53209185600281" height="42.36984133720398"><feFlood flood-opacity="0" result="BackgroundImageFix"/><feBlend mode="normal" in="SourceGraphic" in2="BackgroundImageFix" result="shape"/><feGaussianBlur stdDeviation="0.22366651892662048" result="effect1_foregroundBlur"/></filter><linearGradient x1="0" y1="1" x2="1.178840160369873" y2="-0.18533694744110107" id="master_svgl_295_18302"><stop offset="0%" stop-color="#28543D" stop-opacity="1"/><stop offset="70.15714049339294%" stop-color="#365243" stop-opacity="1"/><stop offset="100%" stop-color="#50FFA8" stop-opacity="1"/></linearGradient><filter id="master_svgm_645_12281" filterUnits="objectBoundingBox" color-interpolation-filters="sRGB" x="-3.5786643028259277" y="-3.5786643028259277" width="8.947945713996887" height="72.55556774139404"><feFlood flood-opacity="0" result="BackgroundImageFix"/><feBlend mode="normal" in="SourceGraphic" in2="BackgroundImageFix" result="shape"/><feGaussianBlur stdDeviation="0.8946660757064819" result="effect1_foregroundBlur"/></filter><filter id="master_svgn_645_12282" filterUnits="objectBoundingBox" color-interpolation-filters="sRGB" x="-1.7893321514129639" y="-1.7893321514129639" width="17.590949535369873" height="4.914476275444031"><feFlood flood-opacity="0" result="BackgroundImageFix"/><feBlend mode="normal" in="SourceGraphic" in2="BackgroundImageFix" result="shape"/><feGaussianBlur stdDeviation="0.44733303785324097" result="effect1_foregroundBlur"/></filter><filter id="master_svgo_645_12283" filterUnits="objectBoundingBox" color-interpolation-filters="sRGB" x="-3.5786643028259277" y="-3.5786643028259277" width="8.947945713996887" height="72.2464246749878"><feFlood flood-opacity="0" result="BackgroundImageFix"/><feBlend mode="normal" in="SourceGraphic" in2="BackgroundImageFix" result="shape"/><feGaussianBlur stdDeviation="0.8946660757064819" result="effect1_foregroundBlur"/></filter><filter id="master_svgp_645_12284" filterUnits="objectBoundingBox" color-interpolation-filters="sRGB" x="-1.7893321514129639" y="-1.7893321514129639" width="30.575000286102295" height="19.300761699676514"><feFlood flood-opacity="0" result="BackgroundImageFix"/><feBlend mode="normal" in="SourceGraphic" in2="BackgroundImageFix" result="shape"/><feGaussianBlur stdDeviation="0.44733303785324097" result="effect1_foregroundBlur"/></filter><linearGradient x1="0.03296469897031784" y1="1" x2="1.1748238801956177" y2="0.13778124749660492" id="master_svgq_295_18299"><stop offset="0%" stop-color="#36694D" stop-opacity="1"/><stop offset="99.99988675117493%" stop-color="#36694D" stop-opacity="0"/></linearGradient><filter id="master_svgr_645_12285" filterUnits="objectBoundingBox" color-interpolation-filters="sRGB" x="-1.7893321514129639" y="-1.7893321514129639" width="17.590949535369873" height="4.914476275444031"><feFlood flood-opacity="0" result="BackgroundImageFix"/><feBlend mode="normal" in="SourceGraphic" in2="BackgroundImageFix" result="shape"/><feGaussianBlur stdDeviation="0.44733303785324097" result="effect1_foregroundBlur"/></filter><filter id="master_svgs_645_12286" filterUnits="objectBoundingBox" color-interpolation-filters="sRGB" x="-1.7893321514129639" y="-1.7893321514129639" width="17.008291721343994" height="4.914476275444031"><feFlood flood-opacity="0" result="BackgroundImageFix"/><feBlend mode="normal" in="SourceGraphic" in2="BackgroundImageFix" result="shape"/><feGaussianBlur stdDeviation="0.44733303785324097" result="effect1_foregroundBlur"/></filter><filter id="master_svgt_645_12287" filterUnits="objectBoundingBox" color-interpolation-filters="sRGB" x="-3.5786643028259277" y="-3.5786643028259277" width="15.662759780883789" height="76.89646434783936"><feFlood flood-opacity="0" result="BackgroundImageFix"/><feBlend mode="normal" in="SourceGraphic" in2="BackgroundImageFix" result="shape"/><feGaussianBlur stdDeviation="0.8946660757064819" result="effect1_foregroundBlur"/></filter><filter id="master_svgu_645_12288" filterUnits="objectBoundingBox" color-interpolation-filters="sRGB" x="-1.7893321514129639" y="-1.7893321514129639" width="3.5786643028259277" height="66.6128134727478"><feFlood flood-opacity="0" result="BackgroundImageFix"/><feBlend mode="normal" in="SourceGraphic" in2="BackgroundImageFix" result="shape"/><feGaussianBlur stdDeviation="0.44733303785324097" result="effect1_foregroundBlur"/></filter><filter id="master_svgv_645_12289" filterUnits="objectBoundingBox" color-interpolation-filters="sRGB" x="-1.7893321514129639" y="-1.7893321514129639" width="3.5786643028259277" height="52.364144802093506"><feFlood flood-opacity="0" result="BackgroundImageFix"/><feBlend mode="normal" in="SourceGraphic" in2="BackgroundImageFix" result="shape"/><feGaussianBlur stdDeviation="0.44733303785324097" result="effect1_foregroundBlur"/></filter><filter id="master_svgw_645_12290" filterUnits="objectBoundingBox" color-interpolation-filters="sRGB" x="-1.7893321514129639" y="-1.7893321514129639" width="29.17771863937378" height="4.914476275444031"><feFlood flood-opacity="0" result="BackgroundImageFix"/><feBlend mode="normal" in="SourceGraphic" in2="BackgroundImageFix" result="shape"/><feGaussianBlur stdDeviation="0.44733303785324097" result="effect1_foregroundBlur"/></filter><filter id="master_svgx_645_12293" filterUnits="objectBoundingBox" color-interpolation-filters="sRGB" x="-0.8946660757064819" y="-0.8946660757064819" width="94.4878032207489" height="38.653536558151245"><feFlood flood-opacity="0" result="BackgroundImageFix"/><feBlend mode="normal" in="SourceGraphic" in2="BackgroundImageFix" result="shape"/><feGaussianBlur stdDeviation="0.22366651892662048" result="effect1_foregroundBlur"/></filter><linearGradient x1="0" y1="1" x2="1.178840160369873" y2="-0.18533694744110107" id="master_svgy_295_18302"><stop offset="0%" stop-color="#28543D" stop-opacity="1"/><stop offset="70.15714049339294%" stop-color="#365243" stop-opacity="1"/><stop offset="100%" stop-color="#50FFA8" stop-opacity="1"/></linearGradient><filter id="master_svgz_645_12294" filterUnits="objectBoundingBox" color-interpolation-filters="sRGB" x="-0.8946660757064819" y="-0.8946660757064819" width="53.714327573776245" height="21.484217405319214"><feFlood flood-opacity="0" result="BackgroundImageFix"/><feBlend mode="normal" in="SourceGraphic" in2="BackgroundImageFix" result="shape"/><feGaussianBlur stdDeviation="0.22366651892662048" result="effect1_foregroundBlur"/></filter><linearGradient x1="0.5" y1="0" x2="0.5" y2="0.5" id="master_svg10_295_18317"><stop offset="0%" stop-color="#3D815C" stop-opacity="1"/><stop offset="100%" stop-color="#2F4A3D" stop-opacity="1"/></linearGradient><filter id="master_svg11_645_12295" filterUnits="objectBoundingBox" color-interpolation-filters="sRGB" x="-3.5786643028259277" y="-3.5786643028259277" width="91.66186046600342" height="71.2112455368042"><feFlood flood-opacity="0" result="BackgroundImageFix"/><feBlend mode="normal" in="SourceGraphic" in2="BackgroundImageFix" result="shape"/><feGaussianBlur stdDeviation="0.8946660757064819" result="effect1_foregroundBlur"/></filter><filter id="master_svg12_645_12296" filterUnits="objectBoundingBox" color-interpolation-filters="sRGB" x="-1.7893321514129639" y="-1.7893321514129639" width="61.77945852279663" height="51.94291067123413"><feFlood flood-opacity="0" result="BackgroundImageFix"/><feBlend mode="normal" in="SourceGraphic" in2="BackgroundImageFix" result="shape"/><feGaussianBlur stdDeviation="0.44733303785324097" result="effect1_foregroundBlur"/></filter><linearGradient x1="0.8075953125953674" y1="-0.054189134389162064" x2="0.4533713757991791" y2="1.0887004137039185" id="master_svg13_295_18389"><stop offset="27.37407088279724%" stop-color="#36694D" stop-opacity="0"/><stop offset="100%" stop-color="#36694D" stop-opacity="1"/></linearGradient><filter id="master_svg14_645_12298" filterUnits="objectBoundingBox" color-interpolation-filters="sRGB" x="-3.5786643028259277" y="-3.5786643028259277" width="7.1573286056518555" height="18.349266052246094"><feFlood flood-opacity="0" result="BackgroundImageFix"/><feBlend mode="normal" in="SourceGraphic" in2="BackgroundImageFix" result="shape"/><feGaussianBlur stdDeviation="0.8946660757064819" result="effect1_foregroundBlur"/></filter><filter id="master_svg15_645_12299" filterUnits="objectBoundingBox" color-interpolation-filters="sRGB" x="-3.5786643028259277" y="-3.5786643028259277" width="7.1573286056518555" height="18.349266052246094"><feFlood flood-opacity="0" result="BackgroundImageFix"/><feBlend mode="normal" in="SourceGraphic" in2="BackgroundImageFix" result="shape"/><feGaussianBlur stdDeviation="0.8946660757064819" result="effect1_foregroundBlur"/></filter><filter id="master_svg16_645_12300" filterUnits="objectBoundingBox" color-interpolation-filters="sRGB" x="-3.5786643028259277" y="-3.5786643028259277" width="7.1573286056518555" height="18.349266052246094"><feFlood flood-opacity="0" result="BackgroundImageFix"/><feBlend mode="normal" in="SourceGraphic" in2="BackgroundImageFix" result="shape"/><feGaussianBlur stdDeviation="0.8946660757064819" result="effect1_foregroundBlur"/></filter><filter id="master_svg17_645_12302" filterUnits="objectBoundingBox" color-interpolation-filters="sRGB" x="-0.8946660757064819" y="-0.8946660757064819" width="67.45803332328796" height="15.512584447860718"><feFlood flood-opacity="0" result="BackgroundImageFix"/><feBlend mode="normal" in="SourceGraphic" in2="BackgroundImageFix" result="shape"/><feGaussianBlur stdDeviation="0.22366651892662048" result="effect1_foregroundBlur"/></filter><linearGradient x1="0.5" y1="0" x2="0.5" y2="0.5" id="master_svg18_295_18317"><stop offset="0%" stop-color="#3D815C" stop-opacity="1"/><stop offset="100%" stop-color="#2F4A3D" stop-opacity="1"/></linearGradient><filter id="master_svg19_645_12303" filterUnits="objectBoundingBox" color-interpolation-filters="sRGB" x="-0.8946660757064819" y="-0.8946660757064819" width="71.60411334037781" height="12.291334867477417"><feFlood flood-opacity="0" result="BackgroundImageFix"/><feBlend mode="normal" in="SourceGraphic" in2="BackgroundImageFix" result="shape"/><feGaussianBlur stdDeviation="0.22366651892662048" result="effect1_foregroundBlur"/></filter><linearGradient x1="0.5" y1="0" x2="0.5" y2="0.5" id="master_svg1a_295_18317"><stop offset="0%" stop-color="#3D815C" stop-opacity="1"/><stop offset="100%" stop-color="#2F4A3D" stop-opacity="1"/></linearGradient><filter id="master_svg1b_645_12304" filterUnits="objectBoundingBox" color-interpolation-filters="sRGB" x="-0.8946660757064819" y="-0.8946660757064819" width="87.70173144340515" height="34.50060153007507"><feFlood flood-opacity="0" result="BackgroundImageFix"/><feBlend mode="normal" in="SourceGraphic" in2="BackgroundImageFix" result="shape"/><feGaussianBlur stdDeviation="0.22366651892662048" result="effect1_foregroundBlur"/></filter><linearGradient x1="0" y1="1" x2="1.178840160369873" y2="-0.18533694744110107" id="master_svg1c_295_18302"><stop offset="0%" stop-color="#28543D" stop-opacity="1"/><stop offset="70.15714049339294%" stop-color="#365243" stop-opacity="1"/><stop offset="100%" stop-color="#50FFA8" stop-opacity="1"/></linearGradient><filter id="master_svg1d_645_12306" filterUnits="objectBoundingBox" color-interpolation-filters="sRGB" x="-3.5786643028259277" y="-3.5786643028259277" width="81.91713237762451" height="18.251617431640625"><feFlood flood-opacity="0" result="BackgroundImageFix"/><feBlend mode="normal" in="SourceGraphic" in2="BackgroundImageFix" result="shape"/><feGaussianBlur stdDeviation="0.8946660757064819" result="effect1_foregroundBlur"/></filter><filter id="master_svg1e_645_12307" filterUnits="objectBoundingBox" color-interpolation-filters="sRGB" x="-3.5786643028259277" y="-3.5786643028259277" width="70.96707820892334" height="23.470559120178223"><feFlood flood-opacity="0" result="BackgroundImageFix"/><feBlend mode="normal" in="SourceGraphic" in2="BackgroundImageFix" result="shape"/><feGaussianBlur stdDeviation="0.8946660757064819" result="effect1_foregroundBlur"/></filter><linearGradient x1="0.5098158121109009" y1="-0.2072402536869049" x2="0.5" y2="1" id="master_svg1f_295_18376"><stop offset="0%" stop-color="#36694D" stop-opacity="0"/><stop offset="99.99999403953552%" stop-color="#36694D" stop-opacity="1"/></linearGradient><filter id="master_svg1g_645_12308" filterUnits="objectBoundingBox" color-interpolation-filters="sRGB" x="-3.5786643028259277" y="-3.5786643028259277" width="70.92390727996826" height="25.336541175842285"><feFlood flood-opacity="0" result="BackgroundImageFix"/><feBlend mode="normal" in="SourceGraphic" in2="BackgroundImageFix" result="shape"/><feGaussianBlur stdDeviation="0.8946660757064819" result="effect1_foregroundBlur"/></filter><linearGradient x1="0.5" y1="-0.228646382689476" x2="0.5" y2="1" id="master_svg1h_295_18373"><stop offset="0%" stop-color="#36694D" stop-opacity="0"/><stop offset="100%" stop-color="#36694D" stop-opacity="1"/></linearGradient><filter id="master_svg1i_645_12310" filterUnits="objectBoundingBox" color-interpolation-filters="sRGB" x="-0.8946660757064819" y="-0.8946660757064819" width="91.70384478569031" height="26.38707423210144"><feFlood flood-opacity="0" result="BackgroundImageFix"/><feBlend mode="normal" in="SourceGraphic" in2="BackgroundImageFix" result="shape"/><feGaussianBlur stdDeviation="0.22366651892662048" result="effect1_foregroundBlur"/></filter><linearGradient x1="0" y1="1" x2="1.5841790437698364" y2="-1.2327383756637573" id="master_svg1j_295_18324"><stop offset="0%" stop-color="#28543D" stop-opacity="1"/><stop offset="70.1571524143219%" stop-color="#365243" stop-opacity="1"/><stop offset="100%" stop-color="#50FFA8" stop-opacity="1"/></linearGradient><filter id="master_svg1k_645_12315" filterUnits="objectBoundingBox" color-interpolation-filters="sRGB" x="-0.8946660757064819" y="-0.8946660757064819" width="49.76342272758484" height="15.412432432174683"><feFlood flood-opacity="0" result="BackgroundImageFix"/><feBlend mode="normal" in="SourceGraphic" in2="BackgroundImageFix" result="shape"/><feGaussianBlur stdDeviation="0.22366651892662048" result="effect1_foregroundBlur"/></filter><linearGradient x1="0.5" y1="0" x2="0.5" y2="0.5" id="master_svg1l_295_18317"><stop offset="0%" stop-color="#3D815C" stop-opacity="1"/><stop offset="100%" stop-color="#2F4A3D" stop-opacity="1"/></linearGradient><filter id="master_svg1m_645_12317" filterUnits="objectBoundingBox" color-interpolation-filters="sRGB" x="-0.8946660757064819" y="-0.8946660757064819" width="49.55942416191101" height="22.782715559005737"><feFlood flood-opacity="0" result="BackgroundImageFix"/><feBlend mode="normal" in="SourceGraphic" in2="BackgroundImageFix" result="shape"/><feGaussianBlur stdDeviation="0.22366651892662048" result="effect1_foregroundBlur"/></filter><linearGradient x1="0.5" y1="0" x2="0.5" y2="0.5" id="master_svg1n_295_18317"><stop offset="0%" stop-color="#3D815C" stop-opacity="1"/><stop offset="100%" stop-color="#2F4A3D" stop-opacity="1"/></linearGradient><filter id="master_svg1o_645_12318" filterUnits="objectBoundingBox" color-interpolation-filters="sRGB" x="-3.5786643028259277" y="-3.5786643028259277" width="89.15717601776123" height="83.89654064178467"><feFlood flood-opacity="0" result="BackgroundImageFix"/><feBlend mode="normal" in="SourceGraphic" in2="BackgroundImageFix" result="shape"/><feGaussianBlur stdDeviation="0.8946660757064819" result="effect1_foregroundBlur"/></filter><filter id="master_svg1p_645_12319" filterUnits="objectBoundingBox" color-interpolation-filters="sRGB" x="-1.7893321514129639" y="-1.7893321514129639" width="59.1233115196228" height="28.42805051803589"><feFlood flood-opacity="0" result="BackgroundImageFix"/><feBlend mode="normal" in="SourceGraphic" in2="BackgroundImageFix" result="shape"/><feGaussianBlur stdDeviation="0.44733303785324097" result="effect1_foregroundBlur"/></filter><linearGradient x1="0.4014371335506439" y1="-0.1769731044769287" x2="0.2686406970024109" y2="1" id="master_svg1q_295_18311"><stop offset="35.20941138267517%" stop-color="#36694D" stop-opacity="0"/><stop offset="42.425909638404846%" stop-color="#36694D" stop-opacity="0.020307503640651703"/><stop offset="99.99992251396179%" stop-color="#36694D" stop-opacity="1"/></linearGradient><filter id="master_svg1r_645_12320" filterUnits="objectBoundingBox" color-interpolation-filters="sRGB" x="-1.7893321514129639" y="-1.7893321514129639" width="3.5786643028259277" height="26.229310512542725"><feFlood flood-opacity="0" result="BackgroundImageFix"/><feBlend mode="normal" in="SourceGraphic" in2="BackgroundImageFix" result="shape"/><feGaussianBlur stdDeviation="0.44733303785324097" result="effect1_foregroundBlur"/></filter><linearGradient x1="0.4014371335506439" y1="-0.1769731044769287" x2="0.2686406970024109" y2="1" id="master_svg1s_295_18321"><stop offset="0%" stop-color="#36694D" stop-opacity="0"/><stop offset="0%" stop-color="#36694D" stop-opacity="0.020307503640651703"/><stop offset="30.02285361289978%" stop-color="#36694D" stop-opacity="0.3144393861293793"/><stop offset="100%" stop-color="#36694D" stop-opacity="1"/></linearGradient><filter id="master_svg1t_645_12322" filterUnits="objectBoundingBox" color-interpolation-filters="sRGB" x="-0.8946660757064819" y="-0.8946660757064819" width="22.504923582077026" height="12.767602682113647"><feFlood flood-opacity="0" result="BackgroundImageFix"/><feBlend mode="normal" in="SourceGraphic" in2="BackgroundImageFix" result="shape"/><feGaussianBlur stdDeviation="0.22366651892662048" result="effect1_foregroundBlur"/></filter><linearGradient x1="0" y1="1" x2="1.5841790437698364" y2="-1.2327383756637573" id="master_svg1u_295_18324"><stop offset="0%" stop-color="#28543D" stop-opacity="1"/><stop offset="70.1571524143219%" stop-color="#365243" stop-opacity="1"/><stop offset="100%" stop-color="#50FFA8" stop-opacity="1"/></linearGradient><filter id="master_svg1v_645_12323" filterUnits="objectBoundingBox" color-interpolation-filters="sRGB" x="-0.8946660757064819" y="-0.8946660757064819" width="70.83300280570984" height="38.00135684013367"><feFlood flood-opacity="0" result="BackgroundImageFix"/><feBlend mode="normal" in="SourceGraphic" in2="BackgroundImageFix" result="shape"/><feGaussianBlur stdDeviation="0.22366651892662048" result="effect1_foregroundBlur"/></filter><linearGradient x1="0" y1="1" x2="1.5841790437698364" y2="-1.2327383756637573" id="master_svg1w_295_18324"><stop offset="0%" stop-color="#28543D" stop-opacity="1"/><stop offset="70.1571524143219%" stop-color="#365243" stop-opacity="1"/><stop offset="100%" stop-color="#50FFA8" stop-opacity="1"/></linearGradient><linearGradient x1="1.060667634010315" y1="0.12010253220796585" x2="0.5" y2="0.8750842213630676" id="master_svg1x_234_19636"><stop offset="46.56137824058533%" stop-color="#66CEA3" stop-opacity="1"/><stop offset="73.48802089691162%" stop-color="#539F7F" stop-opacity="1"/><stop offset="99.99997019767761%" stop-color="#315947" stop-opacity="1"/></linearGradient><filter id="master_svg1y_645_12331" filterUnits="objectBoundingBox" color-interpolation-filters="sRGB" x="-0.8946660757064819" y="-0.8946660757064819" width="50.684305906295776" height="16.378995656967163"><feFlood flood-opacity="0" result="BackgroundImageFix"/><feBlend mode="normal" in="SourceGraphic" in2="BackgroundImageFix" result="shape"/><feGaussianBlur stdDeviation="0.22366651892662048" result="effect1_foregroundBlur"/></filter><linearGradient x1="0.5" y1="0" x2="0.5" y2="0.5" id="master_svg1z_295_18317"><stop offset="0%" stop-color="#3D815C" stop-opacity="1"/><stop offset="100%" stop-color="#2F4A3D" stop-opacity="1"/></linearGradient><filter id="master_svg20_645_12332" filterUnits="objectBoundingBox" color-interpolation-filters="sRGB" x="-3.5786643028259277" y="-3.5786643028259277" width="86.9211072921753" height="40.96870708465576"><feFlood flood-opacity="0" result="BackgroundImageFix"/><feBlend mode="normal" in="SourceGraphic" in2="BackgroundImageFix" result="shape"/><feGaussianBlur stdDeviation="0.8946660757064819" result="effect1_foregroundBlur"/></filter><linearGradient x1="0.5" y1="0" x2="0.5" y2="1.0698974132537842" id="master_svg21_295_18331"><stop offset="0%" stop-color="#36694D" stop-opacity="1"/><stop offset="95.7787275314331%" stop-color="#36694D" stop-opacity="0"/></linearGradient><filter id="master_svg22_645_12333" filterUnits="objectBoundingBox" color-interpolation-filters="sRGB" x="-1.7893321514129639" y="-1.7893321514129639" width="60.17354726791382" height="32.05451726913452"><feFlood flood-opacity="0" result="BackgroundImageFix"/><feBlend mode="normal" in="SourceGraphic" in2="BackgroundImageFix" result="shape"/><feGaussianBlur stdDeviation="0.44733303785324097" result="effect1_foregroundBlur"/></filter><linearGradient x1="0.4014371335506439" y1="-0.1769731044769287" x2="0.2686406970024109" y2="1" id="master_svg23_295_18311"><stop offset="35.20941138267517%" stop-color="#36694D" stop-opacity="0"/><stop offset="42.425909638404846%" stop-color="#36694D" stop-opacity="0.020307503640651703"/><stop offset="99.99992251396179%" stop-color="#36694D" stop-opacity="1"/></linearGradient><filter id="master_svg24_645_12334" filterUnits="objectBoundingBox" color-interpolation-filters="sRGB" x="-1.7893321514129639" y="-1.7893321514129639" width="3.5786643028259277" height="26.229310512542725"><feFlood flood-opacity="0" result="BackgroundImageFix"/><feBlend mode="normal" in="SourceGraphic" in2="BackgroundImageFix" result="shape"/><feGaussianBlur stdDeviation="0.44733303785324097" result="effect1_foregroundBlur"/></filter><linearGradient x1="0.4014371335506439" y1="-0.1769731044769287" x2="0.2686406970024109" y2="1" id="master_svg25_295_18321"><stop offset="0%" stop-color="#36694D" stop-opacity="0"/><stop offset="0%" stop-color="#36694D" stop-opacity="0.020307503640651703"/><stop offset="30.02285361289978%" stop-color="#36694D" stop-opacity="0.3144393861293793"/><stop offset="100%" stop-color="#36694D" stop-opacity="1"/></linearGradient><filter id="master_svg26_645_12335" filterUnits="objectBoundingBox" color-interpolation-filters="sRGB" x="-1.7893321514129639" y="-1.7893321514129639" width="24.28267240524292" height="25.981345653533936"><feFlood flood-opacity="0" result="BackgroundImageFix"/><feBlend mode="normal" in="SourceGraphic" in2="BackgroundImageFix" result="shape"/><feGaussianBlur stdDeviation="0.44733303785324097" result="effect1_foregroundBlur"/></filter><linearGradient x1="0.4014371335506439" y1="-0.1769731044769287" x2="0.2686406970024109" y2="1" id="master_svg27_295_18321"><stop offset="0%" stop-color="#36694D" stop-opacity="0"/><stop offset="0%" stop-color="#36694D" stop-opacity="0.020307503640651703"/><stop offset="30.02285361289978%" stop-color="#36694D" stop-opacity="0.3144393861293793"/><stop offset="100%" stop-color="#36694D" stop-opacity="1"/></linearGradient><filter id="master_svg28_645_12337" filterUnits="objectBoundingBox" color-interpolation-filters="sRGB" x="-0.8946660757064819" y="-0.8946660757064819" width="22.680447340011597" height="11.530497312545776"><feFlood flood-opacity="0" result="BackgroundImageFix"/><feBlend mode="normal" in="SourceGraphic" in2="BackgroundImageFix" result="shape"/><feGaussianBlur stdDeviation="0.22366651892662048" result="effect1_foregroundBlur"/></filter><linearGradient x1="0" y1="1" x2="1.5841790437698364" y2="-1.2327383756637573" id="master_svg29_295_18324"><stop offset="0%" stop-color="#28543D" stop-opacity="1"/><stop offset="70.1571524143219%" stop-color="#365243" stop-opacity="1"/><stop offset="100%" stop-color="#50FFA8" stop-opacity="1"/></linearGradient><filter id="master_svg2a_645_12338" filterUnits="objectBoundingBox" color-interpolation-filters="sRGB" x="-0.8946660757064819" y="-0.8946660757064819" width="22.811381101608276" height="11.530497312545776"><feFlood flood-opacity="0" result="BackgroundImageFix"/><feBlend mode="normal" in="SourceGraphic" in2="BackgroundImageFix" result="shape"/><feGaussianBlur stdDeviation="0.22366651892662048" result="effect1_foregroundBlur"/></filter><linearGradient x1="0" y1="1" x2="1.5841790437698364" y2="-1.2327383756637573" id="master_svg2b_295_18324"><stop offset="0%" stop-color="#28543D" stop-opacity="1"/><stop offset="70.1571524143219%" stop-color="#365243" stop-opacity="1"/><stop offset="100%" stop-color="#50FFA8" stop-opacity="1"/></linearGradient><filter id="master_svg2c_645_12339" filterUnits="objectBoundingBox" color-interpolation-filters="sRGB" x="-0.8946660757064819" y="-0.8946660757064819" width="51.75414538383484" height="36.22530245780945"><feFlood flood-opacity="0" result="BackgroundImageFix"/><feBlend mode="normal" in="SourceGraphic" in2="BackgroundImageFix" result="shape"/><feGaussianBlur stdDeviation="0.22366651892662048" result="effect1_foregroundBlur"/></filter><linearGradient x1="0.5" y1="0" x2="0.5" y2="0.5" id="master_svg2d_295_18337"><stop offset="0%" stop-color="#3D815C" stop-opacity="1"/><stop offset="100%" stop-color="#2F4A3D" stop-opacity="1"/></linearGradient><filter id="master_svg2e_645_12342" filterUnits="objectBoundingBox" color-interpolation-filters="sRGB" x="-3.5786643028259277" y="-3.5786643028259277" width="82.86599254608154" height="80.22838878631592"><feFlood flood-opacity="0" result="BackgroundImageFix"/><feBlend mode="normal" in="SourceGraphic" in2="BackgroundImageFix" result="shape"/><feGaussianBlur stdDeviation="0.8946660757064819" result="effect1_foregroundBlur"/></filter><linearGradient x1="0.5" y1="0" x2="0.5" y2="1.0698974132537842" id="master_svg2f_295_18331"><stop offset="0%" stop-color="#36694D" stop-opacity="1"/><stop offset="95.7787275314331%" stop-color="#36694D" stop-opacity="0"/></linearGradient><filter id="master_svg2g_645_12343" filterUnits="objectBoundingBox" color-interpolation-filters="sRGB" x="-1.7893321514129639" y="-1.7893321514129639" width="3.5786643028259277" height="65.7826018333435"><feFlood flood-opacity="0" result="BackgroundImageFix"/><feBlend mode="normal" in="SourceGraphic" in2="BackgroundImageFix" result="shape"/><feGaussianBlur stdDeviation="0.44733303785324097" result="effect1_foregroundBlur"/></filter><linearGradient x1="0.4014371335506439" y1="-0.1769731044769287" x2="0.2686406970024109" y2="1" id="master_svg2h_295_18321"><stop offset="0%" stop-color="#36694D" stop-opacity="0"/><stop offset="0%" stop-color="#36694D" stop-opacity="0.020307503640651703"/><stop offset="30.02285361289978%" stop-color="#36694D" stop-opacity="0.3144393861293793"/><stop offset="100%" stop-color="#36694D" stop-opacity="1"/></linearGradient></defs><g><g><g><g><g><g><path d="M8.326156616210938,103.98902761230468C16.10728661621094,124.11742761230468,32.18815661621093,142.05242761230468,58.12525661621094,148.11642761230468C84.06235661621093,154.18142761230467,111.23715661621094,142.7024276123047,124.27815661621094,130.88702761230468C169.24215661621093,89.7232276123047,145.25415661621093,42.35334761230469,136.95215661621094,36.41642761230469L8.326156616210938,103.98902761230468Z" fill="#315947" fill-opacity="1"/><path d="M136.95915661621095,36.32217361230469L8.288750116210938,103.91782761230469L8.225286616210937,103.95122761230469L8.251139116210938,104.01802761230469Q14.517076616210938,120.22692761230469,26.36205661621094,131.38542761230468Q39.61615661621094,143.87142761230467,58.10695661621094,148.19542761230468Q67.42085661621094,150.3724276123047,77.57505661621094,149.72442761230468Q86.78615661621093,149.13842761230467,96.06135661621094,146.2834276123047Q104.54295661621094,143.67442761230467,112.12615661621093,139.48742761230469Q119.24215661621093,135.55802761230467,124.33215661621094,130.9464276123047Q139.97115661621095,116.63032761230468,146.47015661621094,99.62362761230469Q151.87115661621092,85.49312761230469,150.67015661621093,70.43522761230469Q149.71315661621094,58.41862761230469,144.87115661621092,47.85992761230469Q142.92615661621093,43.61915761230469,140.70115661621094,40.44572761230469Q138.66715661621095,37.54349761230469,136.99915661621094,36.35100241230469L136.95915661621095,36.32217361230469ZM8.427054616210938,104.02692761230469Q14.678226616210939,120.15822761230469,26.472356616210938,131.2683276123047Q39.69525661621094,143.72542761230468,58.14355661621094,148.0384276123047Q67.43455661621094,150.21042761230467,77.56485661621093,149.56442761230468Q86.75685661621094,148.9784276123047,96.01405661621094,146.12942761230468Q104.47945661621094,143.52542761230467,112.04815661621093,139.3464276123047Q119.14715661621094,135.42622761230467,124.22315661621094,130.82772761230467Q139.83415661621095,116.53652761230468,146.32015661621094,99.56622761230469Q151.70715661621094,85.47012761230468,150.51015661621093,70.44802761230468Q149.55315661621094,58.45992761230469,144.72415661621093,47.92692761230469Q142.78615661621095,43.69942761230469,140.57015661621094,40.53806761230469Q138.57515661621093,37.693437612304685,136.94515661621094,36.510769112304686L8.427054616210938,104.02692761230469Z" fill-rule="evenodd" fill="#365B4A" fill-opacity="1"/></g><g><path d="M138.46933161621092,114.67305729980468Q113.34209161621094,94.3305572998047,110.24803161621094,94.3305572998047L137.50903161621093,36.856857319288686C145.09683161621092,43.39265729980469,162.67333161621093,79.04435729980469,138.46933161621092,114.67305729980468Z" fill-rule="evenodd" fill="url(#master_svg0_234_19636)" fill-opacity="1"/></g><g><path d="M78.32148474121094,0.2093963623046875C11.903684741210938,2.1983763623046872,-6.699375258789063,61.96519636230469,2.0042747412109376,91.12809636230469Q7.292244741210937,111.16639636230468,21.705984741210937,122.47739636230469C57.29498474121094,152.1153963623047,104.78298474121094,139.63139636230468,128.06098474121094,110.7643963623047C151.33798474121093,81.89639636230469,148.87898474121093,43.56929636230469,128.06098474121094,22.040896362304686Q107.24198474121094,0.5125583623046874,78.32148474121094,0.2093963623046875Z" fill="#5CDAA8" fill-opacity="1"/></g><g filter="url(#master_svg1_645_12255)"><path d="M24.242087866210937,28.06368698730469C19.244887866210938,33.43198698730468,-1.128822133789063,55.31878698730469,7.967287866210937,90.90118698730468C-4.638512133789062,31.919986987304686,55.01518786621094,-6.750013012695312,103.19978786621094,14.071646987304687Q146.83018786621093,37.30028698730469,135.25018786621095,87.49428698730469C145.01318786621093,55.44978698730469,132.60218786621095,32.13658698730469,116.94418786621094,19.202986987304687C102.00438786621093,7.341966987304687,82.37928786621094,3.7152269873046873,67.45548786621094,5.784018987304687C45.46318786621094,8.510116987304688,29.493787866210937,22.257986987304687,24.98678786621094,27.25268698730469C24.80568786621094,27.45828698730469,24.55378786621094,27.728886987304687,24.242087866210937,28.06368698730469Z" fill="url(#master_svg2_234_19644)" fill-opacity="1"/></g></g><g><g filter="url(#master_svg3_645_12257)"><path d="M27.93077850341797,111.55334963378907L81.40987850341797,109.97104963378906Q99.85227850341796,109.06424963378906,110.08987850341796,96.43374963378906C116.88907850341796,88.87674963378906,117.08687850341796,79.98104963378907,117.28607850341797,71.01974963378906C117.31517850341797,69.71314963378907,117.34417850341796,68.40504963378906,117.39377850341796,67.09964963378906Q117.78337850341796,56.84074963378906,118.34657850341797,30.865249633789062L91.79227850341798,32.11804963378906Q90.93337850341797,32.171019633789065,90.93337850341797,33.16654963378906Q90.93337850341797,34.16206963378906,89.29667850341798,91.39594963378906L73.85897850341797,91.39594963378906L63.25137850341797,33.16654963378906Q62.36747850341797,32.665109633789065,61.75997850341797,32.894829633789065Q60.42547850341797,33.39951963378906,60.42547850341797,37.43311963378906Q60.17267850341797,43.33864963378906,58.85757850341797,91.89824963378906L40.81367850341797,91.39594963378906L32.79417850341797,33.16654963378906Q32.10175850341797,33.11362963378906,31.57996850341797,33.38671963378906Q29.98423850341797,34.22186963378906,29.98423850341797,38.105989633789065Q29.98423850341797,43.26014963378906,27.93077850341797,111.55334963378907Z" fill="url(#master_svg4_234_19649)" fill-opacity="1"/></g><g><path d="M28.73351287841797,109.25085275878907Q57.86751287841797,108.53975275878906,59.02891287841797,107.73975275878907L58.94341287841797,108.16485275878907L87.20061287841797,107.15425275878906Q106.77751287841797,104.31605275878906,114.95131287841797,85.70665275878906Q117.04301287841797,80.48175275878907,117.01931287841796,73.19595275878906L118.13951287841797,29.898452758789062L91.43091287841797,30.566703758789064L90.09091287841797,87.10225275878906Q89.69081287841797,89.09225275878907,85.85061287841796,89.09225275878907L87.11111287841797,30.566703758789064L61.38161287841797,31.41621275878906L59.49801287841797,87.58485275878905Q59.49801287841797,89.87715275878907,55.66971287841797,89.87715275878907L57.40541287841797,31.41621275878906L30.887252878417968,32.94550275878906L30.887252878417968,33.61138275878906L28.73351287841797,109.25085275878907Z" fill="#5CD9A7" fill-opacity="1"/></g><g><path d="M34.35460662841797,103.12025275878906Q58.99980662841797,103.12025275878906,62.01880662841797,101.15865275878906Q62.10500662841797,101.15865275878906,63.46180662841797,100.31665275878906Q63.95400662841797,99.99475275878906,64.22700662841797,100.12665275878906Q64.56690662841797,100.29085275878906,64.56690662841797,101.15865275878906L64.56690662841797,102.40295275878906Q89.55180662841798,102.15655275878906,92.52680662841797,100.31665275878906Q110.07800662841797,93.32695275878906,111.22670662841797,72.47045275878907L112.19510662841797,35.71095275878906L96.78830662841797,36.02628675878906L95.64780662841797,86.73905275878906Q95.27470662841796,91.86095275878907,90.89570662841797,93.83925275878906C88.83510662841798,94.77005275878906,86.49440662841798,94.78785275878906,84.23330662841798,94.78785275878906L80.25740662841797,94.78785275878906L81.62580662841796,36.586635758789065L66.50260662841796,36.88756275878906L65.14970662841797,86.73905275878906Q65.27680662841797,91.73075275878907,61.21930662841797,94.15845275878905C58.647706628417964,95.69705275878906,55.46040662841797,95.76835275878906,52.46360662841797,95.76835275878906L49.43210662841797,95.76835275878906L51.16110662841797,37.50822275878906L36.18656662841797,38.02141275878906L34.35460662841797,103.12025275878906Z" fill="#000000" fill-opacity="1"/></g></g><g filter="url(#master_svg5_645_12260)"><path d="M54.590830991210936,89.00568229980469L56.354865991210936,30.55270361980469L56.83723599121094,30.567260979804686L55.07320099121094,89.02028229980468L54.590830991210936,89.00568229980469Z" fill-rule="evenodd" fill="#57C497" fill-opacity="1"/></g><g filter="url(#master_svg6_645_12261)"><path d="M84.76656124121094,88.2343354248047L86.06061724121093,29.619109624804686L86.54308724121094,29.62976122480469L85.24903324121094,88.24503542480468L84.76656124121094,88.2343354248047Z" fill-rule="evenodd" fill="#57C497" fill-opacity="1"/></g></g></g><g><g><g filter="url(#master_svg7_645_12264)"><path d="M172.4896240234375,112.803351953125L172.4896240234375,122.15405195312499L233.5246240234375,122.15405195312499C237.29572402343751,122.15405195312499,241.10912402343752,121.950451953125,244.7569240234375,120.994051953125Q272.2309240234375,113.790351953125,272.2309240234375,81.713931983125Q260.6775240234375,111.467551953125,203.3777240234375,111.467551953125L172.4896240234375,112.803351953125Z" fill="url(#master_svg8_295_18302)" fill-opacity="1"/></g><g><path d="M172.4896240234375,28.646728515625L172.4896240234375,112.802928515625L240.53302402343752,112.802928515625C247.5713240234375,112.802928515625,269.3064240234375,105.493628515625,272.1821240234375,82.424928515625C272.2848240234375,81.60072851562501,272.3165240234375,80.772728515625,272.3165240234375,79.942128515625L272.3165240234375,28.646728515625L249.9338240234375,28.646728515625L249.9338240234375,79.108028515625C249.9338240234375,82.25172851562499,249.60812402343748,85.602028515625,247.5762240234375,88.00092851562499Q242.9700240234375,93.439228515625,232.4753240234375,92.765728515625L232.4753240234375,28.646728515625L210.0926240234375,28.646728515625L210.0926240234375,92.765728515625L193.5294240234375,92.765728515625L193.5294240234375,28.646728515625L172.4896240234375,28.646728515625Z" fill="#5CDAA8" fill-opacity="1"/></g><g filter="url(#master_svg9_645_12267)"><path d="M188.7415771484375,33.156494140625L188.7415771484375,98.554694140625L190.5321971484375,98.554694140625L190.5321971484375,33.156494140625L188.7415771484375,33.156494140625Z" fill="#549E78" fill-opacity="1"/></g><g filter="url(#master_svga_645_12268)"><path d="M176.5228271484375,32.654541015625L176.5228271484375,33.990351015625L189.1993271484375,33.990351015625C189.9370271484375,33.990351015625,190.5351271484375,33.392290015625,190.5351271484375,32.654541015625L176.5228271484375,32.654541015625Z" fill="#36694D" fill-opacity="1"/></g><g filter="url(#master_svgb_645_12269)"><path d="M226.7708740234375,33.078369140625L226.7708740234375,98.167469140625L228.5614940234375,98.167469140625L228.5614940234375,33.078369140625L226.7708740234375,33.078369140625Z" fill="#549E78" fill-opacity="1"/></g><g filter="url(#master_svgc_645_12270)"><path d="M227.3470458984375,96.328403515625C227.3470458984375,97.13600351562499,228.0017368984375,97.790703515625,228.8093358984375,97.790703515625L235.8539958984375,97.790703515625C238.8531458984375,97.790703515625,241.85774589843749,97.408803515625,244.5192458984375,96.026203515625C251.7502458984375,92.269703515625,254.3433458984375,86.772683515625,254.3433458984375,82.068603515625Q251.2673458984375,94.493903515625,237.8479458984375,96.328403515625L228.4472458984375,96.328403515625L227.3470458984375,96.328403515625Z" fill="url(#master_svgd_295_18299)" fill-opacity="1"/></g><g filter="url(#master_svge_645_12271)"><path d="M214.5482177734375,32.654541015625L214.5482177734375,33.990351015625L227.2247177734375,33.990351015625C227.9624177734375,33.990351015625,228.5605177734375,33.392290015625,228.5605177734375,32.654541015625L214.5482177734375,32.654541015625Z" fill="#36694D" fill-opacity="1"/></g><g filter="url(#master_svgf_645_12272)"><path d="M254.4154052734375,32.654541015625L254.4154052734375,33.990351015625L266.5092052734375,33.990351015625C267.2470052734375,33.990351015625,267.8450052734375,33.392290015625,267.8450052734375,32.654541015625L254.4154052734375,32.654541015625Z" fill="#36694D" fill-opacity="1"/></g><g filter="url(#master_svgg_645_12273)"><path d="M259.3372802734375,102.561609765625Q267.8427102734375,93.656209765625,267.8427102734375,84.75080976562501L267.8427102734375,32.822509765625L266.9474002734375,32.822509765625L266.9474002734375,84.75080976562501Q266.9474002734375,93.847809765625,259.3372802734375,102.561609765625Z" fill="#59AE84" fill-opacity="1"/></g><g filter="url(#master_svgh_645_12274)"><path d="M214.8890722734375,33.630126953125L214.8890722734375,96.664226953125L214.4417382734375,96.664226953125L214.4417382734375,33.630126953125L214.8890722734375,33.630126953125Z" fill-rule="evenodd" fill="#89E2B5" fill-opacity="1"/></g><g filter="url(#master_svgi_645_12275)"><path d="M254.6332128984375,33.630126953125L254.6332128984375,82.415626953125L254.1858788984375,82.415626953125L254.1858788984375,33.630126953125L254.6332128984375,33.630126953125Z" fill-rule="evenodd" fill="#89E2B5" fill-opacity="1"/></g><g filter="url(#master_svgj_645_12276)"><path d="M189.0872802734375,96.831298828125C189.0872802734375,97.569047828125,189.6853432734375,98.167108828125,190.4230902734375,98.167108828125L212.8898802734375,98.167108828125Q214.6863802734375,97.899948828125,214.6863802734375,96.831298828125L189.0872802734375,96.831298828125Z" fill="#36694D" fill-opacity="1"/></g></g><g><g filter="url(#master_svgk_645_12278)"><path d="M386.9078369140625,122.14773022460938L447.7939369140625,122.14773022460938C451.6638369140625,122.14773022460938,455.5511369140625,121.93853022460937,459.2883369140625,120.93383022460938Q486.6506369140625,113.57773022460938,486.6506369140625,81.56723022460938Q475.0957369140625,111.46123022460938,417.7959369140625,111.46123022460938L386.9078369140625,112.79703022460937L386.9078369140625,122.14773022460938Z" fill="url(#master_svgl_295_18302)" fill-opacity="1"/></g><g><path d="M386.9078369140625,28.642425537109375L386.9078369140625,112.79862553710937L454.9512369140625,112.79862553710937C461.9895369140625,112.79862553710937,483.7246369140625,105.48932553710938,486.6003369140625,82.42062553710937C486.7030369140625,81.59642553710938,486.7347369140625,80.76842553710938,486.7347369140625,79.93782553710938L486.7347369140625,28.642425537109375L464.3520369140625,28.642425537109375L464.3520369140625,79.10372553710937C464.3520369140625,82.24742553710936,464.0263369140625,85.59772553710937,461.9944369140625,87.99662553710937Q457.38823691406253,93.43492553710938,446.8935369140625,92.76142553710937L446.8935369140625,28.642425537109375L424.5108369140625,28.642425537109375L424.5108369140625,92.76142553710937L407.9476369140625,92.76142553710937L407.9476369140625,28.642425537109375L386.9078369140625,28.642425537109375Z" fill="#5CDAA8" fill-opacity="1"/></g><g filter="url(#master_svgm_645_12281)"><path d="M403.1539306640625,33.151214599609375L403.1539306640625,98.54941459960938L404.9445506640625,98.54941459960938L404.9445506640625,33.151214599609375L403.1539306640625,33.151214599609375Z" fill="#549E78" fill-opacity="1"/></g><g filter="url(#master_svgn_645_12282)"><path d="M390.9332275390625,32.650238037109375L390.9332275390625,33.98604803710938L403.6097275390625,33.98604803710938C404.3474275390625,33.98604803710938,404.9455275390625,33.387987037109376,404.9455275390625,32.650238037109375L390.9332275390625,32.650238037109375Z" fill="#36694D" fill-opacity="1"/></g><g filter="url(#master_svgo_645_12283)"><path d="M441.1851806640625,33.071136474609375L441.1851806640625,98.16023647460938L442.9758006640625,98.16023647460938L442.9758006640625,33.071136474609375L441.1851806640625,33.071136474609375Z" fill="#549E78" fill-opacity="1"/></g><g filter="url(#master_svgp_645_12284)"><path d="M441.7613525390625,96.32410053710937C441.7613525390625,97.13170053710937,442.4160435390625,97.78640053710937,443.2236425390625,97.78640053710937L450.2683025390625,97.78640053710937C453.2674525390625,97.78640053710937,456.2720525390625,97.40450053710937,458.9335525390625,96.02190053710937C466.16455253906247,92.26540053710937,468.7576525390625,86.76838053710938,468.7576525390625,82.06430053710938Q465.6816525390625,94.48960053710937,452.2622525390625,96.32410053710937L442.8615525390625,96.32410053710937L441.7613525390625,96.32410053710937Z" fill="url(#master_svgq_295_18299)" fill-opacity="1"/></g><g filter="url(#master_svgr_645_12285)"><path d="M428.9644775390625,32.650238037109375L428.9644775390625,33.98604803710938L441.6409775390625,33.98604803710938C442.3786775390625,33.98604803710938,442.9767775390625,33.387987037109376,442.9767775390625,32.650238037109375L428.9644775390625,32.650238037109375Z" fill="#36694D" fill-opacity="1"/></g><g filter="url(#master_svgs_645_12286)"><path d="M468.8238525390625,32.650238037109375L468.8238525390625,33.98604803710938L480.9176525390625,33.98604803710938C481.6554525390625,33.98604803710938,482.2534525390625,33.387987037109376,482.2534525390625,32.650238037109375L468.8238525390625,32.650238037109375Z" fill="#36694D" fill-opacity="1"/></g><g filter="url(#master_svgt_645_12287)"><path d="M473.7476806640625,102.55730678710937Q482.2531106640625,93.65190678710937,482.2531106640625,84.74650678710938L482.2531106640625,32.818206787109375L481.3578006640625,32.818206787109375L481.3578006640625,84.74650678710938Q481.3578006640625,93.84350678710938,473.7476806640625,102.55730678710937Z" fill="#59AE84" fill-opacity="1"/></g><g filter="url(#master_svgu_645_12288)"><path d="M429.3053320390625,33.624847412109375L429.3053320390625,96.65894741210937L428.8579980390625,96.65894741210937L428.8579980390625,33.624847412109375L429.3053320390625,33.624847412109375Z" fill-rule="evenodd" fill="#89E2B5" fill-opacity="1"/></g><g filter="url(#master_svgv_645_12289)"><path d="M469.0475195390625,33.624847412109375L469.0475195390625,82.41034741210937L468.6001855390625,82.41034741210937L468.6001855390625,33.624847412109375L469.0475195390625,33.624847412109375Z" fill-rule="evenodd" fill="#89E2B5" fill-opacity="1"/></g><g filter="url(#master_svgw_645_12290)"><path d="M403.5015869140625,96.82601928710938C403.5015869140625,97.56376828710937,404.0996499140625,98.16182928710937,404.8373969140625,98.16182928710937L427.3041869140625,98.16182928710937Q429.1006869140625,97.89466928710938,429.1006869140625,96.82601928710938L403.5015869140625,96.82601928710938Z" fill="#36694D" fill-opacity="1"/></g></g><g><g><path d="M282.74468994140625,85.6520876953125L282.74468994140625,60.8262876953125C282.74468994140625,38.6325876953125,302.56698994140623,30.5723876953125,317.4979899414063,30.5723876953125L343.6394899414062,30.5723876953125C365.92148994140626,30.5723876953125,375.38058994140624,47.715487695312504,375.38058994140624,57.8482876953125L375.3806899414062,87.53958769531249C375.38058994140624,104.0603876953125,356.77008994140624,114.5788876953125,347.08958994140625,113.7924876953125L307.93068994140623,113.7924876953125C294.98878994140625,113.7924876953125,282.74468994140625,101.3128876953125,282.74468994140625,85.6520876953125ZM303.0998899414063,60.5565876953125L303.0998899414063,84.19278769531249C303.0998899414063,90.0947876953125,307.90998994140625,94.8792876953125,313.84358994140626,94.8792876953125L344.28108994140626,94.8792876953125C350.2146899414063,94.8792876953125,355.02488994140623,90.0947876953125,355.02488994140623,84.19278769531249L355.02488994140623,60.5565876953125C355.02488994140623,54.6545876953125,350.2146899414063,49.8700876953125,344.28108994140626,49.8700876953125L313.84358994140626,49.8700876953125C307.90998994140625,49.8700876953125,303.0998899414063,54.6545876953125,303.0998899414063,60.5565876953125Z" fill-rule="evenodd" fill="#5CDAA8" fill-opacity="1"/></g><g filter="url(#master_svgx_645_12293)"><path d="M282.75964964140627,85.2842820509125L282.75964964140627,85.5677357578125C282.75964964140627,101.2285017578125,295.00378994140624,113.7082017578125,307.94558994140624,113.7082017578125L347.10458994140623,113.7082017578125C356.62598994140626,114.4816017578125,374.78658994140625,104.3185017578125,375.3806899414062,88.2645017578125L375.3806899414062,91.6243617578125C375.3806899414062,96.6750017578125,374.60148994140627,101.7311017578125,372.09258994140623,106.1220017578125Q362.33208994140625,123.2040017578125,343.7051899414063,122.0790017578125L311.64658994140626,122.0790017578125Q299.75578994140625,121.61510175781251,290.7793299414063,113.4982017578125Q281.89022894140624,105.4603017578125,282.75964964140627,85.2842820509125Z" fill-rule="evenodd" fill="url(#master_svgy_295_18302)" fill-opacity="1"/></g><g filter="url(#master_svgz_645_12294)"><path d="M355.02711181640626,69.5661158203125L355.02711181640626,60.5577158203125C355.02711181640626,54.6557258203125,350.2170118164062,49.8712158203125,344.28341181640627,49.8712158203125L313.84581181640624,49.8712158203125C307.91223181640623,49.8712158203125,303.10211181640625,54.6557258203125,303.10211181640625,60.5577158203125L303.10211181640625,69.5661158203125C303.10211181640625,63.6641158203125,307.91223181640623,58.8796058203125,313.84581181640624,58.8796058203125L344.28341181640627,58.8796058203125C350.2170118164062,58.8796058203125,355.02711181640626,63.6641158203125,355.02711181640626,69.5661158203125Z" fill-rule="evenodd" fill="url(#master_svg10_295_18317)" fill-opacity="1"/></g><g filter="url(#master_svg11_645_12295)"><path d="M286.81109619140625,53.2150705078125Q296.50741619140626,35.9865505078125,311.3933961914062,35.4437805078125L346.4830961914063,35.4437805078125C363.75409619140623,35.4437805078125,370.0996961914062,50.4274705078125,370.0996961914062,56.7407705078125C370.0996961914062,59.0325705078125,370.2443961914063,75.8836705078125,370.24449619140626,85.26107050781249Q370.24449619140626,94.6385705078125,368.0987961914062,97.8811705078125Q371.00309619140626,95.9805705078125,371.31559619140626,86.83557050781249L371.31559619140626,56.7407705078125C371.31559619140626,42.4463905078125,357.45869619140626,33.8272705078125,347.25479619140623,33.8272705078125L317.86709619140623,33.8272705078125Q308.19629619140625,33.8272705078125,303.76849619140626,35.4437805078125Q290.02822619140625,41.5151305078125,286.81109619140625,53.2150705078125Z" fill="#36694D" fill-opacity="1"/></g><g filter="url(#master_svg12_645_12296)"><path d="M358.61153994140625,87.1554158203125L358.61153994140625,58.4953958203125L357.71683994140625,58.4953958203125L357.7169399414063,87.0920158203125Q356.32673994140623,96.7642158203125,346.54413994140623,97.2881158203125L310.4943399414062,97.2881158203125Q304.64588994140627,96.6350158203125,302.26889994140623,92.80301582031251Q300.41077394140626,89.8074158203125,300.41077394140626,84.2299158203125L300.41077294140626,59.7545158203125Q301.85311994140625,51.1870158203125,309.52789994140625,49.8115328203125L309.37007994140623,48.9308988203125Q301.05799994140625,50.4205958203125,299.52218294140624,59.6438158203125L299.51610694140624,59.6803158203125L299.51610794140623,84.2299158203125Q299.51610794140623,90.0623158203125,301.50861994140627,93.2746158203125Q304.11999994140626,97.4844158203125,310.4205399414063,98.1801158203125L310.44493994140623,98.1828158203125L346.56783994140625,98.1828158203125L346.57963994140624,98.1822158203125Q357.12383994140623,97.6237158203125,358.6071399414063,87.1867158203125L358.61153994140625,87.1554158203125Z" fill-rule="evenodd" fill="url(#master_svg13_295_18389)" fill-opacity="1"/></g></g><g><g filter="url(#master_svg14_645_12298)"><path d="M607.3132109140626,34.5147705078125L607.3132109140626,45.706670507812504L605.9712129140624,45.706670507812504L605.9712129140624,34.5147705078125L607.3132109140626,34.5147705078125Z" fill-rule="evenodd" fill="#59AE84" fill-opacity="1"/></g><g filter="url(#master_svg15_645_12299)"><path d="M607.3132109140626,65.9825439453125L607.3132109140626,77.1744439453125L605.9712129140624,77.1744439453125L605.9712129140624,65.9825439453125L607.3132109140626,65.9825439453125Z" fill-rule="evenodd" fill="#59AE84" fill-opacity="1"/></g><g filter="url(#master_svg16_645_12300)"><path d="M607.3132109140626,97.4503173828125L607.3132109140626,108.6422173828125L605.9712129140624,108.6422173828125L605.9712129140624,97.4503173828125L607.3132109140626,97.4503173828125Z" fill-rule="evenodd" fill="#59AE84" fill-opacity="1"/></g><g><g filter="url(#master_svg17_645_12302)"><path d="M547.3216400390625,63.2322111328125Q548.8401700390625,57.6649911328125,554.7300000390625,57.6649911328125L612.7659900390624,57.6649911328125L612.7659900390624,49.5089111328125L552.7474300390625,49.5089111328125Q550.9552300390625,49.5089111328125,549.7352000390625,50.4629271328125Q546.3279950390624,53.1272311328125,547.3216400390625,63.2322111328125Z" fill-rule="evenodd" fill="url(#master_svg18_295_18317)" fill-opacity="1"/></g><g filter="url(#master_svg19_645_12303)"><path d="M543.0021424890625,84.9569286328125Q542.9306850890625,82.7505286328125,542.9617439290625,80.0635986328125L612.7670712890625,80.0635986328125L612.7670712890625,90.5655986328125L548.0778612890625,90.5655986328125C545.1408412890625,90.5655986328125,543.6915822890625,87.9515386328125,543.0021424890625,84.9569286328125Z" fill-rule="evenodd" fill="url(#master_svg1a_295_18317)" fill-opacity="1"/></g><g filter="url(#master_svg1b_645_12304)"><path d="M526.8640856390625,89.4385051694125C527.0249865390625,92.0531886328125,527.4625325390625,94.6485586328125,528.5016425390625,97.0377686328125Q533.5740925390625,108.7007986328125,547.3636025390625,112.3997986328125C549.8962025390625,113.0791986328125,552.4751025390625,113.2431986328125,555.0981025390626,113.2431986328125L612.7675025390625,113.2431986328125L612.7675025390625,122.1335986328125L559.4820025390625,122.1335986328125Q545.9253025390625,122.4144986328125,538.4880025390624,117.8259986328125Q526.5308025390625,110.1927986328125,526.8640856390625,89.4385051694125Z" fill-rule="evenodd" fill="url(#master_svg1c_295_18302)" fill-opacity="1"/></g><g><path d="M526.7301025390625,55.272634570312505L526.7301025390625,86.5122345703125C526.7301025390625,90.1192345703125,527.0105275390625,93.7742345703125,528.4491025390626,97.0819345703125Q533.5215525390626,108.7449345703125,547.3111025390625,112.4439345703125C549.8295025390624,113.1195345703125,552.4381025390625,113.2873345703125,555.0455025390625,113.2873345703125L612.7647025390625,113.2873345703125L612.7647025390625,93.4975345703125L553.1509025390625,93.4975345703125Q551.8035025390625,93.4975345703125,550.7897025390625,92.9159345703125Q547.1146025390625,90.8079345703125,547.8229025390625,81.0582345703125L612.7647025390625,81.0582345703125L612.7647025390625,61.5511345703125L547.8229025390625,61.5511345703125Q546.7775025390625,52.8307345703125,550.1413025390625,50.5147345703125Q551.3578025390625,49.6772345703125,553.1509025390625,49.6772345703125L612.7647025390625,49.6772345703125L612.7647025390625,48.6778345703125L612.7647025390625,29.4454345703125L554.7973025390625,29.4454345703125C553.4071025390625,29.4454345703125,552.0333025390624,29.4931518703125,550.6557025390625,29.6800025703125Q532.4765525390625,32.1456545703125,527.7179885390625,47.1866345703125C526.8979775390625,49.7785345703125,526.7301025390625,52.5541345703125,526.7301025390625,55.272634570312505Z" fill="#5CDAA8" fill-opacity="1"/></g><g filter="url(#master_svg1d_645_12306)"><path d="M534.0191650390625,44.786804882812504Q543.4286450390625,35.0082848828125,556.7786650390625,35.4647848828125L608.7789650390625,35.4647848828125L608.7789650390625,33.6925048828125L556.7786650390625,33.6925048828125Q541.5554650390625,33.6925048828125,534.0191650390625,44.786804882812504Z" fill="#36694D" fill-opacity="1"/></g><g filter="url(#master_svg1e_645_12307)"><path d="M544.0640195390625,66.7353314453125L608.3210525390625,66.7353314453125L608.3210525390625,65.8406314453125L544.9586855390625,65.8406314453125L544.9586855390625,57.1953214453125Q544.9586855390625,50.9658274453125,547.7353225390625,50.4134674453125L547.5607725390626,49.5359954453125Q544.0640195390625,50.2316134453125,544.0640195390625,57.1953214453125L544.0640195390625,66.7353314453125Z" fill-rule="evenodd" fill="url(#master_svg1f_295_18376)" fill-opacity="1"/></g><g filter="url(#master_svg1g_645_12308)"><path d="M553.6108856640625,98.2193955078125L608.4049056640625,98.2193955078125L608.4049056640625,97.3247955078125L553.6729756640625,97.3247955078125Q545.0856476640625,96.1152955078125,545.0856386640625,87.1634755078125L545.0856386640625,79.5928955078125L544.1909726640625,79.5928955078125L544.1909726640625,87.1634755078125Q544.1909786640625,96.9100955078125,553.5802456640625,98.2151955078125L553.6108856640625,98.2193955078125Z" fill-rule="evenodd" fill="url(#master_svg1h_295_18373)" fill-opacity="1"/></g></g></g><g><g filter="url(#master_svg1i_645_12310)"><path d="M691.166108984375,97.54910278320312L691.179808984375,122.05620278320313L712.166208984375,122.14680278320313L712.0404089843751,97.64171068320313L691.166108984375,97.54910278320312ZM622.251708984375,122.14680278320313L643.259008984375,122.14680278320313L643.259008984375,97.63969958320313L622.370616984375,97.64170388320312Q622.301377084375,107.93670278320313,622.251708984375,122.14680278320313Z" fill="url(#master_svg1j_295_18324)" fill-opacity="1"/></g><g><g><g><g><g filter="url(#master_svg1k_645_12315)"><path d="M643.220458984375,86.00222778320312L643.220458984375,99.62532778320312L691.194558984375,99.62532778320312L691.194558984375,86.00222778320312L643.220458984375,86.00222778320312Z" fill="url(#master_svg1l_295_18317)" fill-opacity="1"/></g><g><path d="M622.380400484375,112.83965434570312Q622.243896484375,63.521854345703126,622.243896484375,61.14195434570313C622.243896484375,58.76205434570312,622.243896484375,47.82355434570313,624.917586484375,44.28995434570312Q635.038396484375,27.737504345703126,652.441196484375,29.218596345703126L686.945096484375,29.218596345703126Q692.934296484375,30.176864345703123,698.995496484375,33.567944345703125Q712.258296484375,41.379954345703126,712.258296484375,55.19615434570312L712.258296484375,112.83965434570312L691.169596484375,112.86425434570313L691.169596484375,88.35715434570312L643.387296484375,88.33255434570313L643.387296484375,112.83965434570312L622.380400484375,112.83965434570312ZM691.204796484375,69.24535434570313L643.434696484375,69.24535434570313L643.434696484375,57.15745434570313C643.434696484375,52.23915434570313,647.443096484375,48.25205434570313,652.387796484375,48.25205434570313L682.251696484375,48.25205434570313C687.196396484375,48.25205434570313,691.204796484375,52.23915434570313,691.204796484375,57.15745434570313L691.204796484375,69.24535434570313Z" fill-rule="evenodd" fill="#5CDAA8" fill-opacity="1"/></g><g filter="url(#master_svg1m_645_12317)"><path d="M643.433349609375,64.62524497070312C643.982009609375,60.230044970703126,647.750499609375,56.828354970703124,652.317749609375,56.828354970703124L682.181649609375,56.828354970703124C687.126349609375,56.828354970703124,691.134749609375,60.815444970703126,691.134749609375,65.73374497070313L691.134749609375,69.17824497070313L691.203449609375,69.17824497070313L691.203449609375,57.09025497070313C691.203449609375,52.17193497070313,687.195049609375,48.184844970703125,682.250349609375,48.184844970703125L652.386439609375,48.184844970703125C647.441779609375,48.184844970703125,643.433349609375,52.17193497070313,643.433349609375,57.09025497070313L643.433349609375,64.62524497070312Z" fill-rule="evenodd" fill="url(#master_svg1n_295_18317)" fill-opacity="1"/></g></g><g filter="url(#master_svg1o_645_12318)"><path d="M626.572021484375,52.340596533203126Q632.137971484375,35.85130653320312,648.649621484375,34.53670653320312L683.739321484375,34.53670653320312C701.010321484375,34.53670653320312,707.699521484375,49.520396533203126,707.699521484375,55.833696533203124C707.699521484375,58.125496533203126,707.844221484375,74.97659653320312,707.844221484375,84.35399653320312L707.844221484375,109.65939653320312L708.571821484375,109.65939653320312L708.571821484375,85.92849653320312L708.571821484375,55.833696533203124C708.571821484375,41.53931653320313,694.714821484375,32.920196533203125,684.511021484375,32.920196533203125L655.123321484375,32.920196533203125Q645.452521484375,32.920196533203125,641.024721484375,34.53670653320312Q629.214671484375,39.14515653320313,626.572021484375,52.340596533203126Z" fill="#36694D" fill-opacity="1"/></g><g filter="url(#master_svg1p_645_12319)"><path d="M695.691918359375,73.65251059570312L695.691918359375,60.36761059570313L694.349918359375,60.36761059570313L694.349918359375,72.31051059570312L640.147317359375,72.31051059570312L640.147317359375,57.21412059570312Q640.147318359375,50.14676059570313,642.491228359375,48.70347659570312L641.787578359375,47.560742595703125Q638.805318359375,49.397090595703126,638.805319359375,57.21412059570312L638.805319359375,73.65251059570312L695.691918359375,73.65251059570312Z" fill-rule="evenodd" fill="url(#master_svg1q_295_18311)" fill-opacity="1"/></g></g></g><g filter="url(#master_svg1r_645_12320)"><path d="M638.805319359375,109.71923403320312L638.805319359375,87.06863403320312L640.147317359375,87.06863403320312L640.147317359375,109.71923403320312L638.805319359375,109.71923403320312Z" fill-rule="evenodd" fill="url(#master_svg1s_295_18321)" fill-opacity="1"/></g></g></g><g><g filter="url(#master_svg1t_645_12322)"><path d="M723.5194091796875,122.14892377929688L744.2350091796875,122.14892377929688L744.2350091796875,111.17062377929688L723.5194091796875,111.17062377929688L723.5194091796875,112.48923377929688L723.5194091796875,122.14892377929688Z" fill="url(#master_svg1u_295_18324)" fill-opacity="1"/></g><g filter="url(#master_svg1v_645_12323)"><path d="M743.0350341796875,96.38189565429687L764.0931341796875,96.38189565429687L785.3293341796875,122.14629565429688L812.0787341796874,122.14629565429688L812.0787341796874,112.16519565429687L786.3362341796875,110.88519565429688L765.7106341796875,85.93429565429688L743.0350341796875,85.93429565429688L743.0350341796875,96.38189565429687Z" fill="url(#master_svg1w_295_18324)" fill-opacity="1"/></g><g><path d="M786.3709820546875,87.72249565429688Q784.3539160546875,83.62829565429688,812.5244060546875,49.934295654296875C822.8594060546875,81.41429565429688,796.5872060546875,103.12939565429687,786.3709820546875,87.72249565429688Z" fill="url(#master_svg1x_234_19636)" fill-opacity="1"/></g><g><g><g><g><g><g><path d="M744.2478029296875,112.16278784179687L723.5155029296875,112.16278784179687L723.5155029296875,27.851287841796875L781.6213029296875,27.851287841796875C788.2008029296875,27.851287841796875,806.8646029296875,30.531497841796874,812.6183029296875,49.98758784179687C814.1680029296875,55.34138784179687,815.8539029296875,80.45618784179688,789.1542029296875,86.66258784179688L812.0792029296875,112.16278784179687L785.4286029296875,112.16278784179687L764.1550029296875,86.66258784179688L744.2478029296875,86.66258784179688L744.2478029296875,112.16278784179687ZM782.8354029296875,67.91068784179687L744.2460029296875,67.91068784179687L744.2460029296875,47.40938784179687L782.8354029296875,47.40938784179687C788.5270029296875,47.40938784179687,793.1409029296875,51.998787841796876,793.1409029296875,57.65998784179688C793.1409029296875,63.321287841796874,788.5270029296875,67.91068784179687,782.8354029296875,67.91068784179687Z" fill-rule="evenodd" fill="#5CDAA8" fill-opacity="1"/></g><g filter="url(#master_svg1y_645_12331)"><path d="M792.1787779296875,61.957589404296876C792.7985779296876,60.63988940429687,793.1448779296875,59.16938940429688,793.1448779296875,57.61858940429688C793.1448779296875,51.95726940429687,788.5308779296874,47.367889404296875,782.8392779296875,47.367889404296875L744.2498779296875,47.367889404296875L744.2498779296875,56.909819404296876L784.7422779296875,56.909819404296876Q789.7991779296875,56.909819404296876,792.1787779296875,61.957589404296876Z" fill-rule="evenodd" fill="url(#master_svg1z_295_18317)" fill-opacity="1"/></g></g><g filter="url(#master_svg20_645_12332)"><path d="M803.6750779296875,43.83711909179688Q808.8857779296875,52.003119091796876,807.2751779296875,66.42191909179687L808.6088779296875,66.57091909179687Q810.2720779296875,51.68091909179687,804.8063779296875,43.11531909179688Q799.3079779296875,34.49822909179687,786.7008779296875,32.37125709179688Q784.5837779296875,32.014073091796874,781.5971779296875,32.014073091796874L728.5623779296875,32.014073091796874L728.5623779296875,33.356072091796875L781.5971779296875,33.356072091796875Q784.4713779296875,33.356072091796875,786.4775779296875,33.694559091796876Q798.4970779296875,35.72240909179688,803.6750779296875,43.83711909179688Z" fill-rule="evenodd" fill="url(#master_svg21_295_18331)" fill-opacity="1"/></g></g><g filter="url(#master_svg22_645_12333)"><path d="M793.7826498046875,69.66562846679687Q797.4495498046875,65.26672846679688,796.5745498046875,56.57052846679687L795.6843498046875,56.660028466796874Q796.5216498046875,64.98242846679688,793.0954498046875,69.09272846679687Q789.6829498046875,73.18642846679688,781.9430498046875,73.18642846679688L740.1483828046875,73.18642846679688L740.1483828046875,45.157928466796875L739.2537168046875,45.157928466796875L739.2537168046875,74.08112846679688L781.9430498046875,74.08112846679688Q790.1019498046875,74.08112846679688,793.7826498046875,69.66562846679687Z" fill-rule="evenodd" fill="url(#master_svg23_295_18311)" fill-opacity="1"/></g></g><g filter="url(#master_svg24_645_12334)"><path d="M738.8464570546874,107.85052065429687L738.8464570546874,85.19992065429688L740.1884550546876,85.19992065429688L740.1884550546876,107.85052065429687L738.8464570546874,107.85052065429687Z" fill-rule="evenodd" fill="url(#master_svg25_295_18321)" fill-opacity="1"/></g></g><g filter="url(#master_svg26_645_12335)"><path d="M801.1427185546875,108.64298159179688L780.4387355546875,86.24029959179687L781.4243015546875,85.32946359179688L802.1283185546876,107.73218159179687L801.1427185546875,108.64298159179688Z" fill-rule="evenodd" fill="url(#master_svg27_295_18321)" fill-opacity="1"/></g></g></g><g><g filter="url(#master_svg28_645_12337)"><rect x="824.3577880859375" y="112.40713500976562" width="20.891115188598633" height="9.741165161132812" rx="0" fill="url(#master_svg29_295_18324)" fill-opacity="1"/></g><g filter="url(#master_svg2a_645_12338)"><rect x="887.9749755859375" y="112.40713500976562" width="21.022048950195312" height="9.741165161132812" rx="0" fill="url(#master_svg2b_295_18324)" fill-opacity="1"/></g><g filter="url(#master_svg2c_645_12339)"><path d="M843.5609130859375,57.180569384765626L866.1339130859375,57.180569384765626Q884.5220130859375,57.180569384765626,889.2140130859375,81.02086938476563L893.5257130859375,76.85826938476562L890.4822130859375,56.297579384765626L876.6594130859376,46.584869384765625L843.5609130859375,46.584869384765625L843.5609130859375,57.180569384765626Z" fill="#D8D8D8" fill-opacity="1"/><path d="M843.5609130859375,57.180569384765626L866.1339130859375,57.180569384765626Q884.5220130859375,57.180569384765626,889.2140130859375,81.02086938476563L893.5257130859375,76.85826938476562L890.4822130859375,56.297579384765626L876.6594130859376,46.584869384765625L843.5609130859375,46.584869384765625L843.5609130859375,57.180569384765626Z" fill="url(#master_svg2d_295_18337)" fill-opacity="1"/></g><g><g><path d="M824.3577880859375,112.83695532226562L845.2487880859375,112.83695532226562L845.2487880859375,48.81185532226563L863.4498880859375,48.81185532226563C866.2583880859374,48.81185532226563,869.1027880859375,49.00465532226562,871.7949880859375,49.80495532226563Q884.8092880859375,53.673455322265625,887.4939880859375,64.86855532226562C887.9200880859376,66.64545532226563,887.9786880859375,68.48775532226563,887.9786880859375,70.31505532226564L887.9786880859375,112.83695532226562L908.9982880859375,112.83695532226562L908.9982880859375,69.45495532226562C908.9982880859375,49.721455322265626,894.5606880859375,38.726265322265625,893.6280880859375,37.79862532226562C892.6955880859375,36.870985322265625,882.6232880859375,28.997955322265625,859.8727880859375,28.997955322265625L824.4268596859375,28.997955322265625L824.3577880859375,28.997955322265625L824.3577880859375,112.83695532226562Z" fill="#5CDAA8" fill-opacity="1"/></g><g filter="url(#master_svg2e_645_12342)"><path d="M904.4853318359375,71.00110532226563L904.4853318359375,107.03780532226563L905.8273318359375,107.03780532226563L905.8273318359375,70.92000532226562L905.8224318359376,70.87980532226563Q901.4547318359375,34.84610032226563,868.3571318359375,33.296440322265624L868.3415318359375,33.29570632226562L829.4476318359375,33.29570632226562L829.4476318359375,34.63770432226563L868.3100318359375,34.63770432226563Q900.2415318359375,36.141245322265625,904.4853318359375,71.00110532226563Z" fill-rule="evenodd" fill="url(#master_svg2f_295_18331)" fill-opacity="1"/></g><g filter="url(#master_svg2g_645_12343)"><path d="M839.9953828359374,109.07783188476563L839.9953828359374,46.873931884765625L841.3373808359376,46.873931884765625L841.3373808359376,109.07783188476563L839.9953828359374,109.07783188476563Z" fill-rule="evenodd" fill="url(#master_svg2h_295_18321)" fill-opacity="1"/></g></g></g></g></g></g></svg>